# File produced by Open Asset Import Library (http://www.assimp.sf.net)
# (assimp v3.1.187496374)

mtllib box.obj.mtl

# 40 vertex positions
v  96 4 -4
v  96 96 -4
v  100 4 -4
v  4 4 -4
v  4 0 -4
v  96 0 -4
v  100 96 -4
v  4 96 -4
v  96 100 -4
v  0 96 -4
v  4 100 -4
v  0 4 -4
v  96 96 -96
v  4 96 0
v  96 96 0
v  100 96 -96
v  4 96 -96
v  96 96 -100
v  0 96 -96
v  4 96 -100
v  4 4 -96
v  96 4 0
v  4 4 0
v  0 4 -96
v  96 4 -96
v  4 4 -100
v  100 4 -96
v  96 4 -100
v  4 100 -96
v  96 100 -96
v  96 0 -96
v  4 0 -96
v  0 0 -100
v  0 100 -100
v  100 0 -100
v  100 100 -100
v  100 100 0
v  100 0 -1.97215e-30
v  0 0 0
v  0 100 0

# 0 UV coordinates

# 21 vertex normals
vn 0 0 -1
vn -8.88178e-16 -3.42983e-32 -1
vn 3.42983e-32 -8.88178e-16 -1
vn -3.86165e-17 0 -1
vn 8.88178e-16 3.86165e-17 -1
vn -3.86165e-17 8.88178e-16 -1
vn 0 3.86165e-17 -1
vn 0 -1 0
vn 0 1 0
vn -3.86165e-17 1 0
vn 8.88178e-16 1 3.86165e-17
vn 0 0 1
vn 1 -8.88178e-16 0
vn 1 3.86165e-17 0
vn 1 0 -3.86165e-17
vn 1 3.86165e-17 -8.88178e-16
vn 1 0 0
vn -1 -0 -0
vn 4.93038e-31 0 1
vn 1.97215e-32 -1.97215e-32 1
vn 0 -4.93038e-31 1

# Mesh '<STL_BINARY>' with 96 faces
g <STL_BINARY>
usemtl DefaultMaterial
f  1//1 2//1 3//1
f  4//2 1//1 5//3
f  5//3 1//1 6//4
f  3//1 2//1 7//5
f  2//1 8//2 9//1
f  8//2 4//2 10//2
f  9//1 8//2 11//6
f  10//2 4//2 12//7
f  2//8 13//8 7//8
f  8//8 2//8 14//8
f  14//8 2//8 15//8
f  7//8 13//8 16//8
f  13//8 17//8 18//8
f  17//8 8//8 19//8
f  18//8 17//8 20//8
f  19//8 8//8 10//8
f  4//9 21//9 12//9
f  1//9 4//9 22//10
f  22//10 4//9 23//10
f  12//9 21//9 24//11
f  21//9 25//9 26//10
f  25//9 1//9 27//9
f  26//10 25//9 28//10
f  27//9 1//9 3//11
f  13//12 25//12 16//12
f  17//12 13//12 29//12
f  29//12 13//12 30//12
f  16//12 25//12 27//12
f  25//12 21//12 31//12
f  21//12 17//12 24//12
f  31//12 21//12 32//12
f  24//12 17//12 19//12
f  21//13 4//13 32//13
f  21//13 26//14 17//13
f  32//13 4//13 5//15
f  8//16 14//16 4//13
f  4//13 14//16 23//17
f  8//16 17//13 11//13
f  11//13 17//13 29//15
f  17//13 26//14 20//14
f  13//18 18//18 25//18
f  13//18 2//18 30//18
f  25//18 18//18 28//18
f  1//18 25//18 6//18
f  6//18 25//18 31//18
f  1//18 22//18 2//18
f  30//18 2//18 9//18
f  2//18 22//18 15//18
f  26//1 33//1 20//1
f  26//1 28//1 33//1
f  20//1 33//1 34//1
f  33//1 28//1 35//1
f  20//1 34//1 36//1
f  36//1 18//1 20//1
f  35//1 18//1 36//1
f  35//1 28//1 18//1
f  16//17 37//17 7//17
f  27//17 35//17 16//17
f  16//17 35//17 36//17
f  16//17 36//17 37//17
f  7//17 37//17 38//17
f  7//17 38//17 3//17
f  3//17 38//17 35//17
f  3//17 35//17 27//17
f  14//12 39//12 23//12
f  39//12 14//12 40//12
f  40//12 14//12 15//19
f  23//12 39//12 38//20
f  23//12 38//20 22//21
f  22//21 38//20 15//19
f  15//19 38//20 37//20
f  15//19 37//20 40//12
f  10//18 34//18 19//18
f  12//18 39//18 10//18
f  10//18 39//18 40//18
f  10//18 40//18 34//18
f  19//18 34//18 33//18
f  19//18 33//18 24//18
f  24//18 33//18 39//18
f  24//18 39//18 12//18
f  30//9 34//9 29//9
f  34//9 30//9 36//9
f  36//9 30//9 9//9
f  29//9 34//9 40//9
f  29//9 40//9 11//9
f  11//9 40//9 9//9
f  9//9 40//9 37//9
f  9//9 37//9 36//9
f  32//8 35//8 31//8
f  5//8 39//8 32//8
f  32//8 39//8 33//8
f  32//8 33//8 35//8
f  31//8 35//8 38//8
f  31//8 38//8 6//8
f  6//8 38//8 39//8
f  6//8 39//8 5//8

